<?xml version="1.0"?><svg xmlns="http://www.w3.org/2000/svg"  viewBox="0 0 64 64" width="64px" height="64px">    <path d="M 23 3 C 16.357 3 14 8.926 14 14 C 14 16.416 14.564188 17.993609 14.992188 18.849609 C 14.215188 19.293609 13.512672 19.944016 12.888672 20.916016 L 5.4765625 32.458984 C 4.5825625 33.850984 4.9869063 35.710469 6.3789062 36.605469 C 6.8639063 36.916469 7.4230469 37.080078 7.9980469 37.080078 C 9.0250469 37.080078 9.9695312 36.565938 10.519531 35.710938 L 16.257812 26.958984 C 16.387812 27.437984 16.561156 27.934453 16.785156 28.564453 L 17 29.171875 L 17 32.681641 C 16.294 33.718641 14 37.440047 14 41.998047 C 14 53.895047 19.981 60.998047 30 60.998047 C 34.667 60.998047 41.363719 58.694797 46.761719 47.716797 L 46.894531 47.445312 C 47.222531 46.789313 49.072828 47.234547 50.423828 47.560547 C 51.362828 47.787547 52.248 48 53 48 C 55.346 48 57.603031 46.812031 58.707031 45.707031 C 59.138031 45.276031 59.248953 44.663359 59.001953 44.068359 C 58.270953 42.303359 53.849609 40.271391 48.974609 40.025391 C 48.726609 35.209391 46.699406 30.835422 44.941406 30.107422 C 44.340406 29.857422 43.724969 29.968344 43.292969 30.402344 C 42.187969 31.507344 41 33.764375 41 36.109375 C 41 38.505375 41.36325 39.881281 41.65625 40.988281 C 41.84825 41.718281 42 42.295 42 43 C 42 45.193 39.734 50 33 50 C 31.291 50 31.043813 49.827828 31.007812 49.298828 C 31.004812 49.196828 31 49.093 31 49 C 31 48.351 31.174953 47.559625 31.376953 46.640625 C 31.653953 45.379625 32 43.81 32 42 C 32 37.441 29.706 33.720594 29 32.683594 L 29 29.191406 C 29.08 28.988406 29.160375 28.788469 29.234375 28.605469 C 29.645375 27.593469 29.989547 26.726875 30.060547 25.546875 L 39.888672 29.785156 C 40.246672 29.927156 40.619047 30 40.998047 30 C 42.231047 30 43.326156 29.260281 43.785156 28.113281 C 44.398156 26.578281 43.649297 24.828469 42.154297 24.230469 L 40.728516 23.585938 C 44.551516 22.685938 46.691422 20.457672 47.857422 18.513672 C 47.871422 18.490672 47.870812 18.464406 47.882812 18.441406 C 47.913812 18.378406 47.934172 18.316 47.951172 18.25 C 47.967172 18.189 47.982328 18.130359 47.986328 18.068359 C 47.991328 18.004359 47.984563 17.943906 47.976562 17.878906 C 47.968562 17.814906 47.959453 17.754359 47.939453 17.693359 C 47.920453 17.634359 47.891328 17.581391 47.861328 17.525391 C 47.828328 17.465391 47.795 17.409422 47.75 17.357422 C 47.733 17.337422 47.726031 17.311969 47.707031 17.292969 C 47.677031 17.262969 47.636516 17.249609 47.603516 17.224609 C 47.571516 17.199609 47.549672 17.164578 47.513672 17.142578 C 47.490672 17.128578 47.464406 17.127234 47.441406 17.115234 C 47.379406 17.084234 47.317953 17.065828 47.251953 17.048828 C 47.189953 17.032828 47.129406 17.015719 47.066406 17.011719 C 47.004406 17.007719 46.944812 17.013484 46.882812 17.021484 C 46.816812 17.029484 46.754406 17.038594 46.691406 17.058594 C 46.634406 17.077594 46.583297 17.105766 46.529297 17.134766 C 46.467297 17.168766 46.409469 17.204 46.355469 17.25 C 46.335469 17.267 46.311969 17.273969 46.292969 17.292969 C 46.178969 17.406969 45.717031 17.735203 44.332031 17.908203 C 45.521031 16.390203 46 14.939 46 13 C 46 9.625 42.842031 6.4279688 42.707031 6.2929688 C 42.420031 6.0059688 41.991187 5.9191719 41.617188 6.0761719 C 41.244188 6.2301719 41 6.596 41 7 C 41 8.368 40.479 10 38 10 C 36.52 10 34.604172 8.6468906 32.576172 7.2128906 C 29.784172 5.2378906 26.621 3 23 3 z M 23 5 C 25.985 5 28.874828 7.0437031 31.423828 8.8457031 C 33.717828 10.468703 35.884 12 38 12 C 40.51 12 41.920453 10.803391 42.564453 9.2753906 C 43.268453 10.292391 44 11.671 44 13 C 44 14.658 43.647969 15.909625 41.792969 17.765625 C 41.754969 17.803625 41.738031 17.850578 41.707031 17.892578 C 40.936031 17.767578 40.154234 17.5435 39.365234 17.1875 C 38.861234 16.9615 38.270922 17.184453 38.044922 17.689453 C 37.817922 18.192453 38.041922 18.784719 38.544922 19.011719 C 40.017922 19.674719 41.492547 20.009766 42.935547 20.009766 C 43.077547 20.009766 43.217422 20.005047 43.357422 19.998047 C 43.552422 19.989047 43.734969 19.974938 43.917969 19.960938 C 42.427969 21.087937 40.284078 21.957141 37.205078 21.994141 L 31.035156 19.205078 C 30.699156 19.016078 28.807 18 27 18 L 23 18 L 19 18 C 18.253 18 17.555438 18.053781 16.898438 18.175781 C 16.621437 17.686781 16 16.33 16 14 C 16 12.497 16.337 5 23 5 z M 23 18 C 26.449 18 28 13.322 28 10 C 28 9.569 27.725406 9.1877344 27.316406 9.0527344 C 24.592406 8.1447344 22.724078 6.3109688 22.705078 6.2929688 C 22.477078 6.0669688 22.155891 5.9616719 21.837891 6.0136719 C 21.521891 6.0656719 21.249469 6.2657344 21.105469 6.5527344 C 21.097469 6.5697344 20.208734 8.2774688 18.552734 9.1054688 C 18.214734 9.2744688 18 9.621 18 10 C 18 13.322 19.551 18 23 18 z M 22.216797 8.5078125 C 23.027797 9.1458125 24.331609 10.034453 25.974609 10.689453 C 25.800609 13.064453 24.757 16 23 16 C 21.214 16 20.166578 12.968266 20.017578 10.572266 C 21.008578 9.9502656 21.739797 9.1448125 22.216797 8.5078125 z M 34.035156 13.457031 C 33.779406 13.447781 33.520359 13.535656 33.318359 13.722656 C 32.913359 14.098656 32.891578 14.732719 33.267578 15.136719 C 33.628578 15.523719 34.223766 16.122484 35.009766 16.771484 C 35.196766 16.924484 35.420531 17.001953 35.644531 17.001953 C 35.932531 17.001953 36.219016 16.877672 36.416016 16.638672 C 36.768016 16.212672 36.70725 15.582469 36.28125 15.230469 C 35.57925 14.651469 35.052422 14.119391 34.732422 13.775391 C 34.544422 13.573391 34.290906 13.466281 34.035156 13.457031 z M 19 20 L 27 20 C 28.403 20 30.062125 20.952891 30.078125 20.962891 L 36.603516 23.912109 C 36.611516 23.915109 36.618 23.920828 36.625 23.923828 L 41.369141 26.070312 C 41.881141 26.275312 42.131734 26.857141 41.927734 27.369141 C 41.774734 27.752141 41.409047 28 40.998047 28 C 40.873047 28 40.747344 27.9755 40.652344 27.9375 L 29.396484 23.082031 L 29.394531 23.087891 C 29.271531 23.034891 29.141 23 29 23 C 25.963 23 23.975 24.055375 23 24.734375 C 22.025 24.055375 20.037 23 17 23 C 16.652 23 16.357734 23.188937 16.177734 23.460938 L 16.162109 23.451172 L 8.8417969 34.621094 C 8.5537969 35.069094 7.9119375 35.213828 7.4609375 34.923828 C 6.9969375 34.624828 6.8602031 34.003062 7.1582031 33.539062 L 14.572266 21.996094 C 15.543266 20.484094 16.62 20 19 20 z M 28.078125 25.039062 C 28.092125 26.102063 27.814859 26.787516 27.380859 27.853516 C 27.372859 27.874516 27.363469 27.895016 27.355469 27.916016 C 26.642469 27.766016 25.455203 27.348453 24.408203 26.189453 C 25.107203 25.757453 26.325125 25.191062 28.078125 25.039062 z M 17.984375 25.044922 C 19.704375 25.205922 20.902797 25.7615 21.591797 26.1875 C 20.561797 27.3275 19.394781 27.74925 18.675781 27.90625 L 18.669922 27.892578 C 18.211922 26.604578 18.014375 26.049922 17.984375 25.044922 z M 23 27.607422 C 24.397 29.112422 25.993 29.672906 27 29.878906 L 27 32.585938 L 23 36.585938 L 19 32.585938 L 19 29.878906 C 20.007 29.672906 21.603 29.112422 23 27.607422 z M 44.417969 32.140625 C 45.283969 32.999625 47 36.407 47 41 C 47 41.553 47.448 42 48 42 C 52.544 42 56.063031 43.732797 56.957031 44.591797 C 56.034031 45.331797 54.498 46 53 46 C 52.485 46 51.674625 45.804234 50.890625 45.615234 C 48.776625 45.107234 46.144469 44.474734 45.105469 46.552734 L 44.966797 46.835938 C 40.023797 56.890938 34.099 59 30 59 C 17.364 59 16 47.111 16 42 C 16 38.801 17.345875 36.003938 18.171875 34.585938 L 23 39.414062 L 27.830078 34.582031 C 28.655078 35.995031 30 38.786 30 42 C 30 43.592 29.694828 44.982937 29.423828 46.210938 C 29.206828 47.199937 29 48.134 29 49 C 29 49.57 29.062969 52.477031 30.292969 53.707031 C 30.487969 53.902031 30.744 54 31 54 C 31.256 54 31.512031 53.902031 31.707031 53.707031 C 32.098031 53.316031 32.098031 52.683969 31.707031 52.292969 C 31.624031 52.209969 31.551422 52.073969 31.482422 51.917969 C 32.015422 51.997969 32.553 52 33 52 C 40.504 52 44 46.63 44 43 C 44 42.035 43.801844 41.278516 43.589844 40.478516 C 43.313844 39.432516 43 38.245375 43 36.109375 C 43 34.604375 43.673969 33.062625 44.417969 32.140625 z M 8.1738281 39.707031 C 7.6278281 39.624031 7.1172031 40.000875 7.0332031 40.546875 C 6.9492031 41.092875 7.3250937 41.602547 7.8710938 41.685547 L 9.8496094 41.988281 C 10.395609 42.071281 10.904281 41.696391 10.988281 41.150391 C 11.072281 40.604391 10.696391 40.093766 10.150391 40.009766 L 8.1738281 39.707031 z M 19 40 C 18.448 40 18 40.448 18 41 C 18 41.055 18.002266 42.351375 18.197266 44.109375 C 18.254266 44.621375 18.686453 45 19.189453 45 C 19.226453 45 19.263781 44.998141 19.300781 44.994141 C 19.849781 44.933141 20.246547 44.438625 20.185547 43.890625 C 20.003547 42.248625 20 41.012 20 41 C 20 40.447 19.552 40 19 40 z M 10.089844 44.455078 L 8.0917969 44.554688 C 7.5397969 44.581688 7.1155781 45.049563 7.1425781 45.601562 C 7.1695781 46.153562 7.6374531 46.579734 8.1894531 46.552734 L 10.1875 46.453125 C 10.7395 46.426125 11.165672 45.95825 11.138672 45.40625 C 11.111672 44.85425 10.641844 44.428078 10.089844 44.455078 z M 20.109375 47.207031 C 19.980344 47.192797 19.846844 47.204391 19.714844 47.244141 C 19.185844 47.401141 18.883016 47.957328 19.041016 48.486328 C 19.418016 49.752328 21.055734 53.643578 23.552734 54.892578 C 23.695734 54.965578 23.848047 55 23.998047 55 C 24.365047 55 24.718531 54.798266 24.894531 54.447266 C 25.141531 53.953266 24.941266 53.353469 24.447266 53.105469 C 22.833266 52.298469 21.377031 49.328969 20.957031 47.917969 C 20.838531 47.520469 20.496469 47.249734 20.109375 47.207031 z M 11.101562 48.910156 C 10.972563 48.893984 10.838078 48.901953 10.705078 48.939453 L 8.78125 49.484375 C 8.25025 49.634375 7.9417969 50.188703 8.0917969 50.720703 C 8.2417969 51.251703 8.7932188 51.560156 9.3242188 51.410156 L 11.248047 50.865234 C 11.780047 50.714234 12.089453 50.161859 11.939453 49.630859 C 11.826953 49.232609 11.488563 48.958672 11.101562 48.910156 z M 49.146484 49.96875 C 48.760937 49.911656 48.361734 50.08425 48.146484 50.4375 C 47.859484 50.9095 48.007516 51.5255 48.478516 51.8125 L 50.1875 52.853516 C 50.6595 53.140516 51.273547 52.990531 51.560547 52.519531 C 51.848547 52.048531 51.700516 51.433484 51.228516 51.146484 L 49.519531 50.105469 C 49.401531 50.033719 49.275 49.987781 49.146484 49.96875 z M 12.480469 53.519531 C 12.350891 53.527656 12.221156 53.559594 12.097656 53.621094 L 10.308594 54.515625 C 9.8145938 54.762625 9.6143281 55.361469 9.8613281 55.855469 C 10.108328 56.349469 10.707172 56.551687 11.201172 56.304688 L 12.990234 55.410156 C 13.484234 55.163156 13.686453 54.564312 13.439453 54.070312 C 13.254203 53.699813 12.869203 53.495156 12.480469 53.519531 z M 46.509766 53.966797 C 46.255516 53.995297 46.011844 54.119937 45.839844 54.335938 C 45.495844 54.767938 45.566047 55.396234 45.998047 55.740234 L 47.560547 56.988281 C 47.992547 57.332281 48.622797 57.262078 48.966797 56.830078 C 49.310797 56.398078 49.240594 55.769781 48.808594 55.425781 L 47.244141 54.177734 C 47.028141 54.005734 46.764016 53.938297 46.509766 53.966797 z M 43.806641 57.46875 C 43.551641 57.446125 43.286219 57.521719 43.074219 57.699219 C 42.650219 58.053219 42.594219 58.683422 42.949219 59.107422 L 44.232422 60.642578 C 44.586422 61.066578 45.218578 61.122578 45.642578 60.767578 C 46.066578 60.413578 46.122578 59.781422 45.767578 59.357422 L 44.484375 57.824219 C 44.307375 57.612219 44.061641 57.491375 43.806641 57.46875 z"/></svg>